<svg xmlns="http://www.w3.org/2000/svg" version="1.1" xmlns:xlink="http://www.w3.org/1999/xlink" width="512" height="512" x="0" y="0" viewBox="0 0 32 32" style="enable-background:new 0 0 512 512" xml:space="preserve" class=""><g><path d="M16 1C7.729 1 1 7.729 1 16s6.729 15 15 15 15-6.729 15-15S24.271 1 16 1zm6.314 21.636c.375-1.703.602-3.601.659-5.636h5.986a12.91 12.91 0 0 1-2.53 6.741 31.959 31.959 0 0 0-4.115-1.105zM5.571 23.741A12.902 12.902 0 0 1 3.041 17h5.986c.058 2.035.285 3.933.659 5.636A32.176 32.176 0 0 0 5.57 23.74zM9.686 9.37c-.374 1.701-.601 3.597-.659 5.63H3.041a12.896 12.896 0 0 1 2.53-6.74c1.351.462 2.724.832 4.115 1.11zm1.973.338a32.344 32.344 0 0 0 8.682 0c.351 1.559.578 3.343.638 5.292h-9.958c.06-1.949.287-3.733.638-5.292zM11.021 17h9.957c-.06 1.953-.288 3.739-.639 5.3a32.494 32.494 0 0 0-8.678 0c-.352-1.561-.58-3.348-.639-5.3zm11.951-2c-.058-2.033-.285-3.929-.659-5.63a32.028 32.028 0 0 0 4.115-1.111A12.902 12.902 0 0 1 28.958 15zm2.009-8.371c-1.045.324-2.104.59-3.173.798-.465-1.475-1.049-2.748-1.731-3.762a13.024 13.024 0 0 1 4.904 2.964zM15.999 3c1.363 0 2.813 1.78 3.799 4.75a30.47 30.47 0 0 1-7.598 0c.986-2.969 2.436-4.749 3.799-4.749zm-5.808 4.426a30.092 30.092 0 0 1-3.172-.798 13.028 13.028 0 0 1 4.903-2.964c-.682 1.013-1.266 2.287-1.731 3.761zM7.019 25.372a30.132 30.132 0 0 1 3.171-.797c.464 1.474 1.048 2.747 1.729 3.76a13.032 13.032 0 0 1-4.9-2.962zM16 29c-1.363 0-2.813-1.78-3.799-4.749a30.47 30.47 0 0 1 7.598 0C18.813 27.22 17.363 29 16 29zm5.81-4.426c1.069.208 2.128.473 3.172.797a13.038 13.038 0 0 1-4.901 2.963c.681-1.013 1.265-2.286 1.729-3.76z" fill="#ffffff" opacity="1" data-original="#000000" class=""></path></g></svg>